<?xml version="1.0" encoding="UTF-8" standalone="no"?>
<!DOCTYPE svg PUBLIC "-//W3C//DTD SVG 1.1//EN"
 "http://www.w3.org/Graphics/SVG/1.1/DTD/svg11.dtd">
<!-- Generated by graphviz version 2.40.1 (20161225.0304)
 -->
<!-- Title: dependencies Pages: 1 -->
<svg width="504pt" height="284pt"
 viewBox="0.00 0.00 504.00 284.00" xmlns="http://www.w3.org/2000/svg" xmlns:xlink="http://www.w3.org/1999/xlink">
<g id="graph0" class="graph" transform="scale(1 1) rotate(0) translate(4 280)">
<title>dependencies</title>
<polygon fill="#ffffff" stroke="transparent" points="-4,4 -4,-280 500,-280 500,4 -4,4"/>
<text text-anchor="start" x="227.0091" y="-42.4" font-family="sans-serif" font-weight="bold" font-size="14.00" fill="#000000">Legend</text>
<polygon fill="#ffffb3" stroke="transparent" points="14,-10 14,-30 34,-30 34,-10 14,-10"/>
<text text-anchor="start" x="37.629" y="-15.4" font-family="sans-serif" font-size="14.00" fill="#000000"> &#160;Declarations</text>
<polygon fill="#8dd3c7" stroke="transparent" points="127,-10 127,-30 147,-30 147,-10 127,-10"/>
<text text-anchor="start" x="150.7251" y="-15.4" font-family="sans-serif" font-size="14.00" fill="#000000"> &#160;Module</text>
<polygon fill="#80b1d3" stroke="transparent" points="213,-10 213,-30 233,-30 233,-10 213,-10"/>
<text text-anchor="start" x="236.7812" y="-15.4" font-family="sans-serif" font-size="14.00" fill="#000000"> &#160;Bootstrap</text>
<polygon fill="#fdb462" stroke="transparent" points="310,-10 310,-30 330,-30 330,-10 310,-10"/>
<text text-anchor="start" x="333.6732" y="-15.4" font-family="sans-serif" font-size="14.00" fill="#000000"> &#160;Providers</text>
<polygon fill="#fb8072" stroke="transparent" points="406,-10 406,-30 426,-30 426,-10 406,-10"/>
<text text-anchor="start" x="429.7258" y="-15.4" font-family="sans-serif" font-size="14.00" fill="#000000"> &#160;Exports</text>
<g id="clust1" class="cluster">
<title>cluster_AppModule</title>
<polygon fill="none" stroke="#000000" stroke-dasharray="1,5" points="86,-70 86,-268 410,-268 410,-70 86,-70"/>
</g>
<g id="clust3" class="cluster">
<title>cluster_AppModule_imports</title>
<polygon fill="none" stroke="#000000" points="94,-78 94,-130 402,-130 402,-78 94,-78"/>
</g>
<g id="clust5" class="cluster">
<title>cluster_AppModule_bootstrap</title>
<polygon fill="none" stroke="#000000" points="219,-208 219,-260 307,-260 307,-208 219,-208"/>
</g>
<!-- BrowserModule -->
<g id="node1" class="node">
<title>BrowserModule</title>
<polygon fill="#8dd3c7" stroke="#000000" points="394.4734,-122 391.4734,-126 370.4734,-126 367.4734,-122 287.5266,-122 287.5266,-86 394.4734,-86 394.4734,-122"/>
<text text-anchor="middle" x="341" y="-99.8" font-family="Times,serif" font-size="14.00" fill="#000000">BrowserModule</text>
</g>
<!-- AppModule -->
<g id="node3" class="node">
<title>AppModule</title>
<polygon fill="#8dd3c7" stroke="#000000" points="304.6571,-187 301.6571,-191 280.6571,-191 277.6571,-187 221.3429,-187 221.3429,-151 304.6571,-151 304.6571,-187"/>
<text text-anchor="middle" x="263" y="-164.8" font-family="Times,serif" font-size="14.00" fill="#000000">AppModule</text>
</g>
<!-- BrowserModule&#45;&gt;AppModule -->
<g id="edge1" class="edge">
<title>BrowserModule&#45;&gt;AppModule</title>
<path fill="none" stroke="#000000" d="M296.1708,-122.1061C296.1708,-122.1061 296.1708,-140.991 296.1708,-140.991"/>
<polygon fill="#000000" stroke="#000000" points="292.6708,-140.9909 296.1708,-150.991 299.6708,-140.991 292.6708,-140.9909"/>
</g>
<!-- IonicModule.forRoot(args) -->
<g id="node2" class="node">
<title>IonicModule.forRoot(args)</title>
<polygon fill="#8dd3c7" stroke="#000000" points="270.005,-122 267.005,-126 246.005,-126 243.005,-122 101.995,-122 101.995,-86 270.005,-86 270.005,-122"/>
<text text-anchor="middle" x="186" y="-99.8" font-family="Times,serif" font-size="14.00" fill="#000000">IonicModule.forRoot(args)</text>
</g>
<!-- IonicModule.forRoot(args)&#45;&gt;AppModule -->
<g id="edge2" class="edge">
<title>IonicModule.forRoot(args)&#45;&gt;AppModule</title>
<path fill="none" stroke="#000000" d="M245.5872,-122.1061C245.5872,-122.1061 245.5872,-140.991 245.5872,-140.991"/>
<polygon fill="#000000" stroke="#000000" points="242.0872,-140.9909 245.5872,-150.991 249.0872,-140.991 242.0872,-140.9909"/>
</g>
<!-- IonicApp  -->
<g id="node4" class="node">
<title>IonicApp </title>
<polygon fill="#80b1d3" stroke="#000000" points="299.3734,-252 226.6266,-252 226.6266,-216 299.3734,-216 299.3734,-252"/>
<text text-anchor="middle" x="263" y="-229.8" font-family="Times,serif" font-size="14.00" fill="#000000">IonicApp </text>
</g>
<!-- AppModule&#45;&gt;IonicApp  -->
<g id="edge3" class="edge">
<title>AppModule&#45;&gt;IonicApp </title>
<path fill="none" stroke="#000000" stroke-dasharray="1,5" d="M263,-187.1061C263,-187.1061 263,-205.991 263,-205.991"/>
<polygon fill="#000000" stroke="#000000" points="259.5001,-205.9909 263,-215.991 266.5001,-205.991 259.5001,-205.9909"/>
</g>
</g>
</svg>
