<?xml version="1.0" encoding="UTF-8" standalone="no"?>
<!DOCTYPE svg PUBLIC "-//W3C//DTD SVG 1.1//EN"
 "http://www.w3.org/Graphics/SVG/1.1/DTD/svg11.dtd">
<!-- Generated by graphviz version 2.40.1 (20161225.0304)
 -->
<!-- Title: dependencies Pages: 1 -->
<svg width="1345pt" height="284pt"
 viewBox="0.00 0.00 1345.00 284.00" xmlns="http://www.w3.org/2000/svg" xmlns:xlink="http://www.w3.org/1999/xlink">
<g id="graph0" class="graph" transform="scale(1 1) rotate(0) translate(4 280)">
<title>dependencies</title>
<polygon fill="#ffffff" stroke="transparent" points="-4,4 -4,-280 1341,-280 1341,4 -4,4"/>
<text text-anchor="start" x="647.5091" y="-42.4" font-family="sans-serif" font-weight="bold" font-size="14.00" fill="#000000">Legend</text>
<polygon fill="#ffffb3" stroke="transparent" points="434.5,-10 434.5,-30 454.5,-30 454.5,-10 434.5,-10"/>
<text text-anchor="start" x="458.129" y="-15.4" font-family="sans-serif" font-size="14.00" fill="#000000"> &#160;Declarations</text>
<polygon fill="#8dd3c7" stroke="transparent" points="547.5,-10 547.5,-30 567.5,-30 567.5,-10 547.5,-10"/>
<text text-anchor="start" x="571.2251" y="-15.4" font-family="sans-serif" font-size="14.00" fill="#000000"> &#160;Module</text>
<polygon fill="#80b1d3" stroke="transparent" points="633.5,-10 633.5,-30 653.5,-30 653.5,-10 633.5,-10"/>
<text text-anchor="start" x="657.2812" y="-15.4" font-family="sans-serif" font-size="14.00" fill="#000000"> &#160;Bootstrap</text>
<polygon fill="#fdb462" stroke="transparent" points="730.5,-10 730.5,-30 750.5,-30 750.5,-10 730.5,-10"/>
<text text-anchor="start" x="754.1732" y="-15.4" font-family="sans-serif" font-size="14.00" fill="#000000"> &#160;Providers</text>
<polygon fill="#fb8072" stroke="transparent" points="826.5,-10 826.5,-30 846.5,-30 846.5,-10 826.5,-10"/>
<text text-anchor="start" x="850.2258" y="-15.4" font-family="sans-serif" font-size="14.00" fill="#000000"> &#160;Exports</text>
<g id="clust1" class="cluster">
<title>cluster_AppModule</title>
<polygon fill="none" stroke="#000000" stroke-dasharray="1,5" points="8,-70 8,-268 1329,-268 1329,-70 8,-70"/>
</g>
<g id="clust2" class="cluster">
<title>cluster_AppModule_declarations</title>
<polygon fill="none" stroke="#000000" points="1068,-78 1068,-130 1321,-130 1321,-78 1068,-78"/>
</g>
<g id="clust6" class="cluster">
<title>cluster_AppModule_imports</title>
<polygon fill="none" stroke="#000000" points="752,-78 752,-130 1060,-130 1060,-78 752,-78"/>
</g>
<g id="clust8" class="cluster">
<title>cluster_AppModule_bootstrap</title>
<polygon fill="none" stroke="#000000" points="877,-208 877,-260 965,-260 965,-208 877,-208"/>
</g>
<g id="clust9" class="cluster">
<title>cluster_AppModule_providers</title>
<polygon fill="none" stroke="#000000" points="16,-78 16,-130 744,-130 744,-78 16,-78"/>
</g>
<!-- MyApp -->
<g id="node1" class="node">
<title>MyApp</title>
<polygon fill="#ffffb3" stroke="#000000" points="1312.5529,-122 1253.4471,-122 1253.4471,-86 1312.5529,-86 1312.5529,-122"/>
<text text-anchor="middle" x="1283" y="-99.8" font-family="Times,serif" font-size="14.00" fill="#000000">MyApp</text>
</g>
<!-- AppModule -->
<g id="node4" class="node">
<title>AppModule</title>
<polygon fill="#8dd3c7" stroke="#000000" points="962.6571,-187 959.6571,-191 938.6571,-191 935.6571,-187 879.3429,-187 879.3429,-151 962.6571,-151 962.6571,-187"/>
<text text-anchor="middle" x="921" y="-164.8" font-family="Times,serif" font-size="14.00" fill="#000000">AppModule</text>
</g>
<!-- MyApp&#45;&gt;AppModule -->
<g id="edge1" class="edge">
<title>MyApp&#45;&gt;AppModule</title>
<path fill="none" stroke="#000000" d="M1283,-122.2921C1283,-144.2057 1283,-178 1283,-178 1283,-178 972.8796,-178 972.8796,-178"/>
<polygon fill="#000000" stroke="#000000" points="972.8797,-174.5001 962.8796,-178 972.8796,-181.5001 972.8797,-174.5001"/>
</g>
<!-- HomePage -->
<g id="node2" class="node">
<title>HomePage</title>
<polygon fill="#ffffb3" stroke="#000000" points="1235.9248,-122 1158.0752,-122 1158.0752,-86 1235.9248,-86 1235.9248,-122"/>
<text text-anchor="middle" x="1197" y="-99.8" font-family="Times,serif" font-size="14.00" fill="#000000">HomePage</text>
</g>
<!-- HomePage&#45;&gt;AppModule -->
<g id="edge2" class="edge">
<title>HomePage&#45;&gt;AppModule</title>
<path fill="none" stroke="#000000" d="M1197,-122.1061C1197,-141.3391 1197,-169 1197,-169 1197,-169 972.9185,-169 972.9185,-169"/>
<polygon fill="#000000" stroke="#000000" points="972.9185,-165.5001 962.9185,-169 972.9184,-172.5001 972.9185,-165.5001"/>
</g>
<!-- ListPage -->
<g id="node3" class="node">
<title>ListPage</title>
<polygon fill="#ffffb3" stroke="#000000" points="1140.4902,-122 1075.5098,-122 1075.5098,-86 1140.4902,-86 1140.4902,-122"/>
<text text-anchor="middle" x="1108" y="-99.8" font-family="Times,serif" font-size="14.00" fill="#000000">ListPage</text>
</g>
<!-- ListPage&#45;&gt;AppModule -->
<g id="edge3" class="edge">
<title>ListPage&#45;&gt;AppModule</title>
<path fill="none" stroke="#000000" d="M1108,-122.027C1108,-138.3976 1108,-160 1108,-160 1108,-160 972.9665,-160 972.9665,-160"/>
<polygon fill="#000000" stroke="#000000" points="972.9665,-156.5001 962.9665,-160 972.9664,-163.5001 972.9665,-156.5001"/>
</g>
<!-- IonicApp  -->
<g id="node7" class="node">
<title>IonicApp </title>
<polygon fill="#80b1d3" stroke="#000000" points="957.3734,-252 884.6266,-252 884.6266,-216 957.3734,-216 957.3734,-252"/>
<text text-anchor="middle" x="921" y="-229.8" font-family="Times,serif" font-size="14.00" fill="#000000">IonicApp </text>
</g>
<!-- AppModule&#45;&gt;IonicApp  -->
<g id="edge6" class="edge">
<title>AppModule&#45;&gt;IonicApp </title>
<path fill="none" stroke="#000000" stroke-dasharray="1,5" d="M921,-187.1061C921,-187.1061 921,-205.991 921,-205.991"/>
<polygon fill="#000000" stroke="#000000" points="917.5001,-205.9909 921,-215.991 924.5001,-205.991 917.5001,-205.9909"/>
</g>
<!-- BrowserModule -->
<g id="node5" class="node">
<title>BrowserModule</title>
<polygon fill="#8dd3c7" stroke="#000000" points="1052.4734,-122 1049.4734,-126 1028.4734,-126 1025.4734,-122 945.5266,-122 945.5266,-86 1052.4734,-86 1052.4734,-122"/>
<text text-anchor="middle" x="999" y="-99.8" font-family="Times,serif" font-size="14.00" fill="#000000">BrowserModule</text>
</g>
<!-- BrowserModule&#45;&gt;AppModule -->
<g id="edge4" class="edge">
<title>BrowserModule&#45;&gt;AppModule</title>
<path fill="none" stroke="#000000" d="M954.1708,-122.1061C954.1708,-122.1061 954.1708,-140.991 954.1708,-140.991"/>
<polygon fill="#000000" stroke="#000000" points="950.6708,-140.9909 954.1708,-150.991 957.6708,-140.991 950.6708,-140.9909"/>
</g>
<!-- IonicModule.forRoot(args) -->
<g id="node6" class="node">
<title>IonicModule.forRoot(args)</title>
<polygon fill="#8dd3c7" stroke="#000000" points="928.005,-122 925.005,-126 904.005,-126 901.005,-122 759.995,-122 759.995,-86 928.005,-86 928.005,-122"/>
<text text-anchor="middle" x="844" y="-99.8" font-family="Times,serif" font-size="14.00" fill="#000000">IonicModule.forRoot(args)</text>
</g>
<!-- IonicModule.forRoot(args)&#45;&gt;AppModule -->
<g id="edge5" class="edge">
<title>IonicModule.forRoot(args)&#45;&gt;AppModule</title>
<path fill="none" stroke="#000000" d="M903.5872,-122.1061C903.5872,-122.1061 903.5872,-140.991 903.5872,-140.991"/>
<polygon fill="#000000" stroke="#000000" points="900.0872,-140.9909 903.5872,-150.991 907.0872,-140.991 900.0872,-140.9909"/>
</g>
<!-- StatusBar -->
<g id="node8" class="node">
<title>StatusBar</title>
<ellipse fill="#fdb462" stroke="#000000" cx="687" cy="-104" rx="48.6694" ry="18"/>
<text text-anchor="middle" x="687" y="-99.8" font-family="Times,serif" font-size="14.00" fill="#000000">StatusBar</text>
</g>
<!-- StatusBar&#45;&gt;AppModule -->
<g id="edge7" class="edge">
<title>StatusBar&#45;&gt;AppModule</title>
<path fill="none" stroke="#000000" d="M687,-122.027C687,-138.3976 687,-160 687,-160 687,-160 869.1655,-160 869.1655,-160"/>
<polygon fill="#000000" stroke="#000000" points="869.1655,-163.5001 879.1655,-160 869.1655,-156.5001 869.1655,-163.5001"/>
</g>
<!-- SplashScreen -->
<g id="node9" class="node">
<title>SplashScreen</title>
<ellipse fill="#fdb462" stroke="#000000" cx="557" cy="-104" rx="63.1189" ry="18"/>
<text text-anchor="middle" x="557" y="-99.8" font-family="Times,serif" font-size="14.00" fill="#000000">SplashScreen</text>
</g>
<!-- SplashScreen&#45;&gt;AppModule -->
<g id="edge8" class="edge">
<title>SplashScreen&#45;&gt;AppModule</title>
<path fill="none" stroke="#000000" d="M557,-122.1061C557,-141.3391 557,-169 557,-169 557,-169 869.2446,-169 869.2446,-169"/>
<polygon fill="#000000" stroke="#000000" points="869.2446,-172.5001 879.2446,-169 869.2445,-165.5001 869.2446,-172.5001"/>
</g>
<!-- { provide: ErrorHandler, useClass: IonicErrorHandler } -->
<g id="node10" class="node">
<title>{ provide: ErrorHandler, useClass: IonicErrorHandler }</title>
<ellipse fill="#fdb462" stroke="#000000" cx="250" cy="-104" rx="226.4736" ry="18"/>
<text text-anchor="middle" x="250" y="-99.8" font-family="Times,serif" font-size="14.00" fill="#000000">{ provide: ErrorHandler, useClass: IonicErrorHandler }</text>
</g>
<!-- { provide: ErrorHandler, useClass: IonicErrorHandler }&#45;&gt;AppModule -->
<g id="edge9" class="edge">
<title>{ provide: ErrorHandler, useClass: IonicErrorHandler }&#45;&gt;AppModule</title>
<path fill="none" stroke="#000000" d="M250,-122.2921C250,-144.2057 250,-178 250,-178 250,-178 869.2795,-178 869.2795,-178"/>
<polygon fill="#000000" stroke="#000000" points="869.2795,-181.5001 879.2795,-178 869.2794,-174.5001 869.2795,-181.5001"/>
</g>
</g>
</svg>
